{
    "asset" : {
        "generator" : "Khronos glTF Blender I/O v1.3.48",
        "version" : "2.0"
    },
    "scene" : 0,
    "scenes" : [
        {
            "name" : "Scene",
            "nodes" : [
                0,
                1,
                2,
                3,
                4,
                5,
                6,
                7,
                8,
                9,
                10,
                11
            ]
        }
    ],
    "nodes" : [
        {
            "mesh" : 0,
            "name" : "Text.001",
            "rotation" : [
                0,
                0.7071070671081543,
                0,
                0.7071064710617065
            ],
            "scale" : [
                0.4901464283466339,
                0.4901464283466339,
                0.4901464283466339
            ],
            "translation" : [
                -11.671663284301758,
                0.31279200315475464,
                2.504164695739746
            ]
        },
        {
            "mesh" : 1,
            "name" : "Text",
            "rotation" : [
                0,
                0.7071070671081543,
                0,
                0.7071064710617065
            ],
            "scale" : [
                0.4901464283466339,
                0.4901464283466339,
                0.4901464283466339
            ],
            "translation" : [
                -11.671663284301758,
                0.31279200315475464,
                -0.2463960200548172
            ]
        },
        {
            "mesh" : 2,
            "name" : "Plane.010",
            "rotation" : [
                0,
                -0.7071070671081543,
                0,
                0.7071065902709961
            ],
            "scale" : [
                0.09091794490814209,
                1,
                0.8128310441970825
            ],
            "translation" : [
                -6.872624397277832,
                0.3898255228996277,
                2.1580305099487305
            ]
        },
        {
            "mesh" : 3,
            "name" : "Plane.009",
            "rotation" : [
                0,
                -1,
                0,
                -7.589671326968528e-07
            ],
            "scale" : [
                0.09091794490814209,
                1,
                1.9837617874145508
            ],
            "translation" : [
                -7.598426342010498,
                0.3898255228996277,
                0.1572127342224121
            ]
        },
        {
            "mesh" : 4,
            "name" : "Plane.008",
            "rotation" : [
                0,
                -0.7071059346199036,
                0,
                -0.7071076035499573
            ],
            "scale" : [
                0.09091794490814209,
                1,
                0.5153409838676453
            ],
            "translation" : [
                -8.033092498779297,
                0.3898255228996277,
                -1.7425556182861328
            ]
        },
        {
            "mesh" : 5,
            "name" : "Plane.005",
            "rotation" : [
                0,
                -1,
                0,
                -7.589671326968528e-07
            ],
            "scale" : [
                0.09091794490814209,
                1,
                1.5063773393630981
            ],
            "translation" : [
                -8.453242301940918,
                0.3898255228996277,
                0.24551282823085785
            ]
        },
        {
            "mesh" : 6,
            "name" : "Plane.004",
            "rotation" : [
                0,
                -1,
                0,
                -7.589671326968528e-07
            ],
            "scale" : [
                0.09091794490814209,
                1,
                0.38879936933517456
            ],
            "translation" : [
                -8.456353187561035,
                0.3898255228996277,
                2.8583872318267822
            ]
        },
        {
            "mesh" : 7,
            "name" : "Plane.003",
            "rotation" : [
                0,
                -0.7071070671081543,
                0,
                0.7071065902709961
            ],
            "scale" : [
                0.09091794490814209,
                1,
                1.1998101472854614
            ],
            "translation" : [
                -7.235506534576416,
                0.3898255228996277,
                3.1542556285858154
            ]
        },
        {
            "mesh" : 8,
            "name" : "Plane.002",
            "scale" : [
                1.4165583848953247,
                1,
                1
            ],
            "translation" : [
                -9.527532577514648,
                0.31279200315475464,
                -1.4577158689498901
            ]
        },
        {
            "name" : "Camera",
            "rotation" : [
                0.0035015286412090063,
                0,
                0,
                0.9999938607215881
            ],
            "translation" : [
                -1.3267573118209839,
                24.418020248413086,
                0.4385637044906616
            ]
        },
        {
            "mesh" : 9,
            "name" : "Plane.001",
            "scale" : [
                1.5003998279571533,
                1,
                1
            ],
            "translation" : [
                -9.734745979309082,
                0.31279200315475464,
                2.0672852993011475
            ]
        },
        {
            "name" : "SHAPE_800IndexedFaceSet",
            "rotation" : [
                0,
                0,
                0,
                -1
            ],
            "scale" : [
                0.49664244055747986,
                0.49664244055747986,
                0.49664244055747986
            ],
            "translation" : [
                -23.109365463256836,
                0.002899169921875,
                -22.638160705566406
            ]
        }
    ],
    "materials" : [
        {
            "doubleSided" : true,
            "name" : "Material.006",
            "pbrMetallicRoughness" : {}
        },
        {
            "doubleSided" : true,
            "name" : "redwire",
            "pbrMetallicRoughness" : {}
        },
        {
            "doubleSided" : true,
            "name" : "black wire",
            "pbrMetallicRoughness" : {}
        },
        {
            "doubleSided" : true,
            "name" : "Material.004",
            "pbrMetallicRoughness" : {}
        },
        {
            "doubleSided" : true,
            "name" : "Material.002",
            "pbrMetallicRoughness" : {}
        }
    ],
    "meshes" : [
        {
            "name" : "Text.001",
            "primitives" : [
                {
                    "attributes" : {
                        "POSITION" : 0,
                        "NORMAL" : 1,
                        "TEXCOORD_0" : 2
                    },
                    "indices" : 3,
                    "material" : 0
                }
            ]
        },
        {
            "name" : "Text",
            "primitives" : [
                {
                    "attributes" : {
                        "POSITION" : 4,
                        "NORMAL" : 5,
                        "TEXCOORD_0" : 6
                    },
                    "indices" : 7,
                    "material" : 0
                }
            ]
        },
        {
            "name" : "Plane.012",
            "primitives" : [
                {
                    "attributes" : {
                        "POSITION" : 8,
                        "NORMAL" : 9
                    },
                    "indices" : 10,
                    "material" : 1
                }
            ]
        },
        {
            "name" : "Plane.011",
            "primitives" : [
                {
                    "attributes" : {
                        "POSITION" : 11,
                        "NORMAL" : 12
                    },
                    "indices" : 10,
                    "material" : 1
                }
            ]
        },
        {
            "name" : "Plane.010",
            "primitives" : [
                {
                    "attributes" : {
                        "POSITION" : 13,
                        "NORMAL" : 14
                    },
                    "indices" : 10,
                    "material" : 1
                }
            ]
        },
        {
            "name" : "Plane.007",
            "primitives" : [
                {
                    "attributes" : {
                        "POSITION" : 15,
                        "NORMAL" : 16
                    },
                    "indices" : 10,
                    "material" : 2
                }
            ]
        },
        {
            "name" : "Plane.006",
            "primitives" : [
                {
                    "attributes" : {
                        "POSITION" : 17,
                        "NORMAL" : 18
                    },
                    "indices" : 10,
                    "material" : 2
                }
            ]
        },
        {
            "name" : "Plane.005",
            "primitives" : [
                {
                    "attributes" : {
                        "POSITION" : 19,
                        "NORMAL" : 20
                    },
                    "indices" : 10,
                    "material" : 2
                }
            ]
        },
        {
            "name" : "Plane.004",
            "primitives" : [
                {
                    "attributes" : {
                        "POSITION" : 21,
                        "NORMAL" : 22,
                        "TEXCOORD_0" : 23
                    },
                    "indices" : 10,
                    "material" : 3
                }
            ]
        },
        {
            "name" : "Plane.002",
            "primitives" : [
                {
                    "attributes" : {
                        "POSITION" : 24,
                        "NORMAL" : 25,
                        "TEXCOORD_0" : 26
                    },
                    "indices" : 10,
                    "material" : 4
                }
            ]
        }
    ],
    "accessors" : [
        {
            "bufferView" : 0,
            "componentType" : 5126,
            "count" : 2421,
            "max" : [
                1.936000108718872,
                0.05300000309944153,
                0.02502739429473877
            ],
            "min" : [
                0.05799996852874756,
                -0.05300000309944153,
                -0.6980000734329224
            ],
            "type" : "VEC3"
        },
        {
            "bufferView" : 1,
            "componentType" : 5126,
            "count" : 2421,
            "type" : "VEC3"
        },
        {
            "bufferView" : 2,
            "componentType" : 5126,
            "count" : 2421,
            "type" : "VEC2"
        },
        {
            "bufferView" : 3,
            "componentType" : 5123,
            "count" : 4302,
            "type" : "SCALAR"
        },
        {
            "bufferView" : 4,
            "componentType" : 5126,
            "count" : 4385,
            "max" : [
                5.296161651611328,
                0.01100000087171793,
                0.2460000365972519
            ],
            "min" : [
                0.053999967873096466,
                -0.01100000087171793,
                -0.7070099711418152
            ],
            "type" : "VEC3"
        },
        {
            "bufferView" : 5,
            "componentType" : 5126,
            "count" : 4385,
            "type" : "VEC3"
        },
        {
            "bufferView" : 6,
            "componentType" : 5126,
            "count" : 4385,
            "type" : "VEC2"
        },
        {
            "bufferView" : 7,
            "componentType" : 5123,
            "count" : 7920,
            "type" : "SCALAR"
        },
        {
            "bufferView" : 8,
            "componentType" : 5126,
            "count" : 4,
            "max" : [
                1,
                0,
                1
            ],
            "min" : [
                -1,
                0,
                -1
            ],
            "type" : "VEC3"
        },
        {
            "bufferView" : 9,
            "componentType" : 5126,
            "count" : 4,
            "type" : "VEC3"
        },
        {
            "bufferView" : 10,
            "componentType" : 5123,
            "count" : 6,
            "type" : "SCALAR"
        },
        {
            "bufferView" : 11,
            "componentType" : 5126,
            "count" : 4,
            "max" : [
                1,
                0,
                1
            ],
            "min" : [
                -1,
                0,
                -1
            ],
            "type" : "VEC3"
        },
        {
            "bufferView" : 12,
            "componentType" : 5126,
            "count" : 4,
            "type" : "VEC3"
        },
        {
            "bufferView" : 13,
            "componentType" : 5126,
            "count" : 4,
            "max" : [
                1,
                0,
                1
            ],
            "min" : [
                -1,
                0,
                -1
            ],
            "type" : "VEC3"
        },
        {
            "bufferView" : 14,
            "componentType" : 5126,
            "count" : 4,
            "type" : "VEC3"
        },
        {
            "bufferView" : 15,
            "componentType" : 5126,
            "count" : 4,
            "max" : [
                1,
                0,
                1
            ],
            "min" : [
                -1,
                0,
                -1
            ],
            "type" : "VEC3"
        },
        {
            "bufferView" : 16,
            "componentType" : 5126,
            "count" : 4,
            "type" : "VEC3"
        },
        {
            "bufferView" : 17,
            "componentType" : 5126,
            "count" : 4,
            "max" : [
                1,
                0,
                1
            ],
            "min" : [
                -1,
                0,
                -1
            ],
            "type" : "VEC3"
        },
        {
            "bufferView" : 18,
            "componentType" : 5126,
            "count" : 4,
            "type" : "VEC3"
        },
        {
            "bufferView" : 19,
            "componentType" : 5126,
            "count" : 4,
            "max" : [
                1,
                0,
                1
            ],
            "min" : [
                -1,
                0,
                -1
            ],
            "type" : "VEC3"
        },
        {
            "bufferView" : 20,
            "componentType" : 5126,
            "count" : 4,
            "type" : "VEC3"
        },
        {
            "bufferView" : 21,
            "componentType" : 5126,
            "count" : 4,
            "max" : [
                1,
                0,
                1
            ],
            "min" : [
                -1,
                0,
                -1
            ],
            "type" : "VEC3"
        },
        {
            "bufferView" : 22,
            "componentType" : 5126,
            "count" : 4,
            "type" : "VEC3"
        },
        {
            "bufferView" : 23,
            "componentType" : 5126,
            "count" : 4,
            "type" : "VEC2"
        },
        {
            "bufferView" : 24,
            "componentType" : 5126,
            "count" : 4,
            "max" : [
                1,
                0,
                1
            ],
            "min" : [
                -1,
                0,
                -1
            ],
            "type" : "VEC3"
        },
        {
            "bufferView" : 25,
            "componentType" : 5126,
            "count" : 4,
            "type" : "VEC3"
        },
        {
            "bufferView" : 26,
            "componentType" : 5126,
            "count" : 4,
            "type" : "VEC2"
        }
    ],
    "bufferViews" : [
        {
            "buffer" : 0,
            "byteLength" : 29052,
            "byteOffset" : 0
        },
        {
            "buffer" : 0,
            "byteLength" : 29052,
            "byteOffset" : 29052
        },
        {
            "buffer" : 0,
            "byteLength" : 19368,
            "byteOffset" : 58104
        },
        {
            "buffer" : 0,
            "byteLength" : 8604,
            "byteOffset" : 77472
        },
        {
            "buffer" : 0,
            "byteLength" : 52620,
            "byteOffset" : 86076
        },
        {
            "buffer" : 0,
            "byteLength" : 52620,
            "byteOffset" : 138696
        },
        {
            "buffer" : 0,
            "byteLength" : 35080,
            "byteOffset" : 191316
        },
        {
            "buffer" : 0,
            "byteLength" : 15840,
            "byteOffset" : 226396
        },
        {
            "buffer" : 0,
            "byteLength" : 48,
            "byteOffset" : 242236
        },
        {
            "buffer" : 0,
            "byteLength" : 48,
            "byteOffset" : 242284
        },
        {
            "buffer" : 0,
            "byteLength" : 12,
            "byteOffset" : 242332
        },
        {
            "buffer" : 0,
            "byteLength" : 48,
            "byteOffset" : 242344
        },
        {
            "buffer" : 0,
            "byteLength" : 48,
            "byteOffset" : 242392
        },
        {
            "buffer" : 0,
            "byteLength" : 48,
            "byteOffset" : 242440
        },
        {
            "buffer" : 0,
            "byteLength" : 48,
            "byteOffset" : 242488
        },
        {
            "buffer" : 0,
            "byteLength" : 48,
            "byteOffset" : 242536
        },
        {
            "buffer" : 0,
            "byteLength" : 48,
            "byteOffset" : 242584
        },
        {
            "buffer" : 0,
            "byteLength" : 48,
            "byteOffset" : 242632
        },
        {
            "buffer" : 0,
            "byteLength" : 48,
            "byteOffset" : 242680
        },
        {
            "buffer" : 0,
            "byteLength" : 48,
            "byteOffset" : 242728
        },
        {
            "buffer" : 0,
            "byteLength" : 48,
            "byteOffset" : 242776
        },
        {
            "buffer" : 0,
            "byteLength" : 48,
            "byteOffset" : 242824
        },
        {
            "buffer" : 0,
            "byteLength" : 48,
            "byteOffset" : 242872
        },
        {
            "buffer" : 0,
            "byteLength" : 32,
            "byteOffset" : 242920
        },
        {
            "buffer" : 0,
            "byteLength" : 48,
            "byteOffset" : 242952
        },
        {
            "buffer" : 0,
            "byteLength" : 48,
            "byteOffset" : 243000
        },
        {
            "buffer" : 0,
            "byteLength" : 32,
            "byteOffset" : 243048
        }
    ],
    "buffers" : [
        {
            "byteLength" : 243080,
            "uri" : "data:application/octet-stream;base64,"
        }
    ]
}
